<?xml version="1.0" encoding="UTF-8"?>
<svg xmlns="http://www.w3.org/2000/svg" xmlns:xlink="http://www.w3.org/1999/xlink" width="42px" height="42px" viewBox="0 0 42 42" version="1.1">
<g id="surface1">
<path style=" stroke:none;fill-rule:nonzero;fill:rgb(0%,0%,0%);fill-opacity:1;" d="M 12.921875 4.929688 C 11.976562 5.054688 10.679688 5.398438 9.761719 5.765625 C 7.523438 6.667969 6.390625 7.703125 5.757812 9.449219 L 5.539062 10.046875 L 5.511719 16.308594 C 5.488281 23.28125 5.472656 23.027344 6.046875 24.199219 C 6.265625 24.648438 6.511719 24.976562 6.964844 25.4375 C 7.523438 25.988281 8.316406 26.527344 14.160156 30.253906 C 17.777344 32.566406 20.804688 34.453125 20.894531 34.453125 C 21.082031 34.453125 20.949219 34.527344 28.464844 29.898438 C 33.929688 26.539062 34.378906 26.242188 34.984375 25.632812 C 35.742188 24.886719 36.101562 24.273438 36.339844 23.328125 C 36.496094 22.730469 36.503906 22.402344 36.503906 16.71875 C 36.503906 10.074219 36.503906 10.097656 35.960938 8.984375 C 35.386719 7.800781 34.550781 7.03125 33.035156 6.285156 C 31.507812 5.527344 30.195312 5.167969 28.414062 4.996094 C 26.347656 4.808594 24.347656 5.160156 22.097656 6.101562 L 21.050781 6.546875 L 20.589844 6.339844 C 19.589844 5.890625 18.382812 5.429688 17.734375 5.257812 C 16.339844 4.882812 14.355469 4.75 12.921875 4.929688 Z M 16.464844 6.367188 C 17.40625 6.53125 18.308594 6.824219 19.679688 7.433594 C 20.328125 7.71875 20.925781 7.957031 21.007812 7.957031 C 21.089844 7.957031 21.738281 7.71875 22.453125 7.414062 C 24.496094 6.570312 25.625 6.316406 27.40625 6.316406 C 28.6875 6.316406 29.695312 6.480469 30.96875 6.898438 C 32.992188 7.5625 34.175781 8.425781 34.757812 9.640625 C 35.140625 10.46875 35.207031 11.148438 34.953125 11.902344 C 34.75 12.535156 34.328125 13.175781 33.894531 13.542969 C 33.722656 13.683594 31.113281 15.332031 28.085938 17.195312 C 23.140625 20.246094 22.582031 20.574219 22.4375 20.476562 C 22.34375 20.417969 19.597656 18.664062 16.324219 16.570312 C 9.71875 12.34375 9.566406 12.222656 8.992188 11.066406 C 8.457031 9.984375 8.417969 9.007812 8.859375 7.980469 C 9.023438 7.585938 9.074219 7.546875 9.664062 7.277344 C 11.917969 6.25 14.109375 5.957031 16.464844 6.367188 Z M 35.109375 22.765625 C 34.96875 23.484375 34.601562 24.199219 34.101562 24.699219 C 33.765625 25.042969 32.195312 26.046875 27.347656 29.03125 C 23.878906 31.171875 20.984375 32.925781 20.917969 32.925781 C 20.722656 32.925781 8.390625 25.019531 7.988281 24.632812 C 7.515625 24.175781 7.167969 23.617188 6.972656 22.976562 C 6.824219 22.507812 6.808594 22.214844 6.808594 19.800781 C 6.808594 18.292969 6.839844 17.144531 6.882812 17.144531 C 6.996094 17.144531 7.449219 17.6875 7.621094 18.03125 C 7.785156 18.367188 8 19.015625 8.316406 20.164062 C 8.582031 21.113281 8.777344 21.492188 9.246094 21.992188 C 9.96875 22.765625 10.804688 22.835938 12.007812 22.238281 C 12.757812 21.871094 12.929688 21.835938 13.347656 22.035156 C 13.558594 22.140625 13.691406 22.304688 13.921875 22.746094 C 14.25 23.394531 14.699219 24.734375 14.847656 25.46875 C 15.25 27.53125 16.027344 28.554688 17.488281 28.925781 C 18.703125 29.234375 19.875 28.726562 20.417969 27.660156 C 20.5 27.496094 20.648438 27.011719 20.753906 26.59375 C 20.859375 26.152344 20.992188 25.808594 21.058594 25.78125 C 21.125 25.757812 21.460938 25.847656 21.804688 25.988281 C 22.992188 26.453125 23.886719 26.527344 24.78125 26.25 C 25.796875 25.9375 26.503906 25.167969 27.101562 23.75 C 27.839844 21.976562 28.25 21.695312 29.671875 22.035156 C 30.804688 22.296875 32.148438 22.042969 32.820312 21.433594 C 33.265625 21.03125 33.4375 20.722656 33.582031 20.015625 C 33.65625 19.679688 33.757812 19.246094 33.8125 19.054688 C 33.894531 18.777344 33.886719 18.6875 33.78125 18.53125 C 33.65625 18.34375 33.671875 18.316406 34.042969 17.882812 C 34.632812 17.195312 34.648438 17.152344 34.683594 15.832031 C 34.714844 14.675781 34.722656 14.632812 34.929688 14.414062 L 35.148438 14.183594 L 35.175781 18.226562 C 35.191406 20.984375 35.167969 22.425781 35.109375 22.765625 Z M 35.109375 22.765625 "/>
<path style=" stroke:none;fill-rule:nonzero;fill:rgb(0%,0%,0%);fill-opacity:1;" d="M 24.878906 8.597656 C 24.632812 8.628906 24.363281 8.992188 24.363281 9.261719 C 24.363281 9.621094 24.570312 9.804688 25.214844 10.039062 C 25.789062 10.253906 25.839844 10.253906 26.070312 10.140625 C 26.375 9.984375 26.519531 9.605469 26.40625 9.277344 C 26.28125 8.933594 25.355469 8.523438 24.878906 8.597656 Z M 24.878906 8.597656 "/>
<path style=" stroke:none;fill-rule:nonzero;fill:rgb(0%,0%,0%);fill-opacity:1;" d="M 16.039062 8.851562 C 15.90625 8.933594 15.667969 9.113281 15.527344 9.246094 C 15.070312 9.671875 15.207031 10.320312 15.78125 10.46875 C 16.027344 10.523438 16.382812 10.34375 16.816406 9.933594 C 17.210938 9.554688 17.25 9.246094 16.9375 8.910156 C 16.703125 8.65625 16.390625 8.628906 16.039062 8.851562 Z M 16.039062 8.851562 "/>
<path style=" stroke:none;fill-rule:nonzero;fill:rgb(0%,0%,0%);fill-opacity:1;" d="M 11.246094 9.082031 C 11.058594 9.238281 10.664062 10.5 10.664062 10.933594 C 10.664062 11.246094 10.992188 11.566406 11.3125 11.566406 C 11.730469 11.566406 11.945312 11.289062 12.171875 10.402344 C 12.296875 9.96875 12.363281 9.546875 12.335938 9.457031 C 12.164062 8.972656 11.609375 8.785156 11.246094 9.082031 Z M 11.246094 9.082031 "/>
<path style=" stroke:none;fill-rule:nonzero;fill:rgb(0%,0%,0%);fill-opacity:1;" d="M 29.820312 9.96875 C 29.6875 10.089844 29.613281 10.253906 29.613281 10.425781 C 29.613281 10.65625 29.71875 10.804688 30.292969 11.378906 C 30.867188 11.953125 31.015625 12.058594 31.246094 12.058594 C 31.605469 12.058594 31.910156 11.746094 31.910156 11.371094 C 31.910156 11.132812 31.820312 10.992188 31.277344 10.425781 C 30.695312 9.820312 30.605469 9.761719 30.328125 9.761719 C 30.105469 9.761719 29.957031 9.820312 29.820312 9.96875 Z M 29.820312 9.96875 "/>
<path style=" stroke:none;fill-rule:nonzero;fill:rgb(0%,0%,0%);fill-opacity:1;" d="M 20.3125 11.910156 C 19.523438 12.738281 19.382812 13.058594 19.65625 13.4375 C 19.84375 13.707031 20.15625 13.8125 20.433594 13.699219 C 20.640625 13.609375 21.089844 13.132812 21.558594 12.519531 C 21.796875 12.199219 21.789062 11.851562 21.53125 11.609375 C 21.179688 11.246094 20.875 11.320312 20.3125 11.910156 Z M 20.3125 11.910156 "/>
<path style=" stroke:none;fill-rule:nonzero;fill:rgb(0%,0%,0%);fill-opacity:1;" d="M 14.160156 13.820312 C 13.894531 14.109375 13.886719 14.4375 14.132812 14.726562 C 14.273438 14.890625 14.4375 14.953125 14.878906 15.019531 C 15.390625 15.101562 15.460938 15.09375 15.660156 14.945312 C 16.085938 14.625 16.078125 14.109375 15.644531 13.820312 C 15.535156 13.757812 15.199219 13.675781 14.90625 13.640625 C 14.398438 13.601562 14.355469 13.609375 14.160156 13.820312 Z M 14.160156 13.820312 "/>
<path style=" stroke:none;fill-rule:nonzero;fill:rgb(0%,0%,0%);fill-opacity:1;" d="M 25.667969 15.109375 C 24.953125 16.070312 24.921875 16.21875 25.289062 16.628906 C 25.46875 16.824219 25.824219 16.875 26.085938 16.734375 C 26.234375 16.652344 26.964844 15.710938 27.152344 15.355469 C 27.375 14.929688 27.019531 14.4375 26.496094 14.4375 C 26.175781 14.4375 26.152344 14.460938 25.667969 15.109375 Z M 25.667969 15.109375 "/>
<path style=" stroke:none;fill-rule:nonzero;fill:rgb(0%,0%,0%);fill-opacity:1;" d="M 20.574219 17.144531 C 20.394531 17.277344 20.34375 17.390625 20.34375 17.628906 C 20.34375 18.070312 20.597656 18.277344 21.277344 18.390625 C 21.78125 18.472656 21.84375 18.464844 22.050781 18.316406 C 22.4375 18.03125 22.394531 17.398438 21.984375 17.1875 C 21.851562 17.121094 21.53125 17.039062 21.269531 17.011719 C 20.859375 16.972656 20.761719 16.988281 20.574219 17.144531 Z M 20.574219 17.144531 "/>
<path style=" stroke:none;fill-rule:nonzero;fill:rgb(0%,0%,0%);fill-opacity:1;" d="M 2.304688 21.722656 C 0.695312 23.3125 -0.0976562 25.125 0.0234375 26.90625 C 0.148438 28.578125 0.828125 29.957031 2.257812 31.375 C 5.21875 34.339844 10.132812 36.21875 16.898438 36.964844 C 18.480469 37.144531 23.132812 37.167969 24.691406 37.011719 C 31.746094 36.296875 37.203125 34.199219 40.023438 31.121094 C 41.34375 29.679688 41.949219 28.277344 41.949219 26.660156 C 41.949219 25.554688 41.785156 24.914062 41.195312 23.707031 C 40.777344 22.84375 40.664062 22.691406 39.90625 21.917969 C 39.121094 21.132812 39.054688 21.082031 38.742188 21.082031 C 38.472656 21.082031 38.367188 21.132812 38.234375 21.296875 C 37.929688 21.679688 38.003906 21.878906 38.667969 22.515625 C 39.40625 23.222656 39.695312 23.59375 40.054688 24.332031 C 40.5625 25.332031 40.761719 26.40625 40.605469 27.292969 C 40.144531 29.957031 37.109375 32.445312 32.359375 34.066406 C 25.617188 36.363281 16.867188 36.421875 10.023438 34.199219 C 4.871094 32.523438 1.671875 29.867188 1.34375 26.996094 C 1.273438 26.324219 1.492188 25.296875 1.894531 24.453125 C 2.296875 23.609375 2.550781 23.265625 3.386719 22.460938 C 4.003906 21.871094 4.035156 21.8125 3.988281 21.558594 C 3.921875 21.214844 3.667969 21 3.3125 21 C 3.078125 21 2.9375 21.097656 2.304688 21.722656 Z M 2.304688 21.722656 "/>
</g>
</svg>
